<svg id="splitsvg" version="1.1" xmlns="http://www.w3.org/2000/svg" xmlns:xlink="http://www.w3.org/1999/xlink" width="1380" height="848"><g id="svgg"><path id="path0" d="M254.164 145.824 C 253.616 146.848,253.593 248.534,254.140 249.974 L 254.526 250.988 260.221 250.988 C 267.199 250.988,266.391 253.613,266.398 230.929 C 266.403 212.040,266.419 211.873,268.019 213.473 C 270.799 216.253,271.569 220.945,271.823 236.656 C 271.988 246.798,272.167 250.292,272.538 250.600 C 272.844 250.853,275.133 250.969,278.513 250.901 L 283.992 250.791 284.121 240.711 C 284.361 222.066,282.464 211.479,278.031 206.714 C 277.019 205.626,276.999 205.706,279.062 202.527 C 280.049 201.005,280.845 198.895,281.879 195.059 C 282.267 193.616,282.411 189.990,282.411 181.621 L 282.411 170.158 276.482 170.158 L 270.553 170.158 270.356 181.423 C 270.145 193.437,269.739 195.973,267.592 198.703 C 266.400 200.218,266.386 199.925,266.386 172.709 C 266.386 155.804,266.244 146.291,265.985 145.808 C 265.367 144.652,254.783 144.666,254.164 145.824 M216.587 170.444 C 216.323 179.779,216.620 241.824,216.935 243.346 C 218.702 251.874,227.490 254.504,233.374 248.266 C 234.869 246.682,235.516 246.716,236.899 248.450 C 240.114 252.479,241.395 252.297,245.542 247.221 L 248.943 243.059 247.890 241.194 L 246.838 239.328 246.640 204.743 L 246.443 170.158 240.711 170.158 L 234.980 170.158 234.783 203.822 L 234.585 237.486 233.627 238.506 C 232.556 239.646,231.005 239.832,229.819 238.965 C 229.072 238.419,229.046 237.483,228.854 204.281 L 228.656 170.158 222.628 170.049 C 217.953 169.964,216.598 170.053,216.587 170.444 M288.307 170.498 C 287.573 172.410,288.373 243.729,289.146 245.304 C 292.719 252.581,298.775 253.938,304.440 248.730 L 306.847 246.517 308.265 248.171 C 311.934 252.450,312.941 252.376,317.000 247.530 C 320.949 242.815,320.829 243.109,319.597 241.157 L 318.585 239.553 318.571 205.646 C 318.564 186.997,318.451 171.334,318.321 170.840 C 318.087 169.949,318.027 169.941,312.303 170.049 L 306.522 170.158 306.324 203.822 L 306.126 237.486 305.168 238.506 C 303.967 239.784,302.396 239.826,301.255 238.611 L 300.395 237.696 300.395 203.828 L 300.395 169.960 294.454 169.960 C 289.811 169.960,288.468 170.078,288.307 170.498 M243.522 265.593 C 243.493 267.007,243.612 267.613,243.867 267.358 C 244.112 267.113,244.128 266.313,243.911 265.204 L 243.565 263.439 243.522 265.593 M278.769 265.415 C 278.772 266.502,278.849 266.900,278.940 266.299 C 279.031 265.698,279.028 264.809,278.934 264.323 C 278.841 263.836,278.766 264.328,278.769 265.415 M235.279 265.451 C 234.868 266.246,235.023 267.194,235.564 267.194 C 236.096 267.194,236.388 265.982,236.017 265.318 C 235.711 264.771,235.622 264.787,235.279 265.451 M292.174 265.692 C 291.466 266.400,291.598 267.271,292.391 267.120 C 292.772 267.047,293.140 266.590,293.209 266.103 C 293.348 265.130,292.910 264.956,292.174 265.692 M240.613 266.139 C 240.139 267.295,240.238 269.802,240.737 269.303 C 240.968 269.071,241.102 268.102,241.033 267.149 C 240.945 265.919,240.823 265.626,240.613 266.139 M217.271 267.076 C 216.925 269.079,216.977 270.751,217.385 270.751 C 217.606 270.751,217.787 270.206,217.787 269.539 C 217.787 268.873,217.961 268.002,218.174 267.604 C 218.451 267.086,218.405 266.753,218.011 266.426 C 217.569 266.059,217.425 266.185,217.271 267.076 M230.475 268.248 C 230.511 269.937,230.551 270.021,230.818 268.972 C 230.985 268.320,231.189 267.542,231.272 267.243 C 231.355 266.944,231.201 266.618,230.929 266.518 C 230.574 266.388,230.446 266.874,230.475 268.248 M255.589 266.677 C 255.210 267.057,255.284 268.379,255.685 268.379 C 256.142 268.379,256.538 266.855,256.145 266.612 C 255.978 266.509,255.728 266.538,255.589 266.677 M266.008 266.798 C 265.694 266.992,265.569 267.282,265.729 267.442 C 265.890 267.603,266.229 267.526,266.482 267.273 C 267.079 266.676,266.746 266.342,266.008 266.798 M237.657 268.379 C 237.657 269.358,237.734 269.758,237.828 269.269 C 237.923 268.780,237.923 267.979,237.828 267.490 C 237.734 267.001,237.657 267.401,237.657 268.379 M252.574 267.194 C 252.522 267.520,252.419 268.303,252.345 268.934 C 252.272 269.565,252.126 270.307,252.020 270.581 C 251.915 270.856,252.067 271.172,252.358 271.284 C 253.077 271.560,253.296 270.492,252.954 268.370 C 252.797 267.397,252.626 266.868,252.574 267.194 M311.597 267.414 C 311.467 267.752,311.543 268.597,311.767 269.291 C 312.168 270.540,312.173 270.533,312.213 268.676 C 312.254 266.770,312.024 266.300,311.597 267.414 M272.819 268.379 C 272.819 269.140,272.900 269.452,273.000 269.071 C 273.099 268.691,273.099 268.068,273.000 267.688 C 272.900 267.307,272.819 267.619,272.819 268.379 M227.202 269.595 C 227.054 271.152,227.286 271.791,227.810 271.267 C 228.199 270.879,228.110 267.984,227.710 267.984 C 227.515 267.984,227.287 268.709,227.202 269.595 M242.532 269.005 C 242.163 269.968,242.248 271.146,242.688 271.146 C 242.905 271.146,243.083 270.524,243.083 269.763 C 243.083 268.263,242.909 268.023,242.532 269.005 M277.710 269.005 C 277.340 269.968,277.426 271.146,277.866 271.146 C 278.083 271.146,278.261 270.524,278.261 269.763 C 278.261 268.263,278.087 268.023,277.710 269.005 M207.378 269.038 C 206.964 269.452,207.070 271.146,207.510 271.146 C 207.727 271.146,207.905 270.613,207.905 269.960 C 207.905 268.732,207.825 268.592,207.378 269.038 M265.355 269.915 C 264.995 270.870,265.018 271.137,265.474 271.312 C 266.204 271.592,266.604 270.536,266.153 269.524 C 265.827 268.795,265.767 268.824,265.355 269.915 M194.966 271.035 C 195.567 271.125,196.456 271.123,196.942 271.029 C 197.428 270.935,196.937 270.861,195.850 270.864 C 194.763 270.867,194.365 270.944,194.966 271.035 M202.273 271.030 C 202.762 271.124,203.562 271.124,204.051 271.030 C 204.541 270.936,204.140 270.859,203.162 270.859 C 202.184 270.859,201.784 270.936,202.273 271.030 M269.269 271.023 C 269.649 271.123,270.272 271.123,270.652 271.023 C 271.033 270.924,270.721 270.843,269.960 270.843 C 269.200 270.843,268.888 270.924,269.269 271.023 M296.348 271.031 C 296.840 271.125,297.552 271.121,297.930 271.023 C 298.307 270.924,297.905 270.846,297.036 270.851 C 296.166 270.855,295.857 270.936,296.348 271.031  M -25 0 L -5 0 L -5 20 L -25 20 Z M 405 0 L 425 0 L 425 20 L 405 20 Z" stroke="none" fill="#0d0d0d" fill-rule="evenodd" transform="translate(30,0)"></path><path id="path1" d="M0.000 197.628 L 0.000 395.257 200.000 395.257 L 400.000 395.257 400.000 197.628 L 400.000 0.000 200.000 0.000 L 0.000 0.000 0.000 197.628 M188.950 145.479 C 199.452 147.771,206.758 154.879,208.676 164.671 C 208.926 165.950,209.300 167.854,209.506 168.904 C 211.137 177.193,208.279 188.758,203.163 194.569 C 201.121 196.889,201.167 197.423,203.616 199.802 C 212.289 208.230,214.222 225.979,207.827 238.468 C 205.611 242.797,198.293 248.891,194.359 249.684 C 193.757 249.805,193.168 250.059,193.051 250.249 C 192.934 250.438,192.311 250.593,191.666 250.593 C 189.945 250.593,189.723 249.556,189.723 241.503 L 189.723 234.441 190.950 233.568 C 194.819 230.813,197.047 221.494,195.188 215.838 C 193.237 209.899,189.570 205.679,188.466 208.103 C 187.788 209.590,187.335 209.336,185.178 206.262 C 183.099 203.300,178.544 198.635,175.420 196.267 C 172.963 194.405,173.062 195.644,173.202 168.464 C 173.304 148.503,173.399 145.375,173.913 145.051 C 175.069 144.321,184.929 144.602,188.950 145.479 M266.559 145.289 C 266.690 145.633,266.798 157.652,266.798 171.997 C 266.798 199.511,266.851 200.239,268.457 194.862 C 269.806 190.347,269.960 188.748,269.960 179.322 C 269.960 172.383,270.092 169.592,270.435 169.249 C 271.325 168.359,282.050 168.611,282.984 169.545 C 283.868 170.430,284.153 185.030,283.384 190.119 C 282.451 196.296,281.713 199.473,281.058 200.127 C 280.824 200.362,280.626 200.829,280.618 201.166 C 280.611 201.503,280.011 202.644,279.286 203.701 L 277.968 205.624 279.300 206.996 C 280.033 207.751,280.632 208.564,280.632 208.802 C 280.632 209.041,281.009 210.015,281.470 210.967 C 282.361 212.807,282.839 214.401,283.457 217.589 C 283.667 218.676,284.029 220.366,284.261 221.344 C 284.919 224.119,285.208 250.435,284.589 251.181 C 283.943 251.959,272.385 252.069,271.621 251.304 C 271.272 250.956,271.146 247.534,271.146 238.369 C 271.146 223.713,270.239 217.136,267.865 214.588 L 266.996 213.655 266.893 232.187 C 266.822 245.069,266.656 250.881,266.351 251.249 C 265.807 251.904,254.922 252.008,253.729 251.369 C 252.967 250.962,252.454 147.244,253.204 145.289 C 253.410 144.755,254.376 144.664,259.881 144.664 C 265.387 144.664,266.353 144.755,266.559 145.289 M126.617 161.845 C 136.329 163.576,146.441 172.314,151.101 183.004 C 151.914 184.867,152.195 186.126,152.732 190.316 L 153.188 193.874 158.314 194.079 C 167.338 194.442,176.722 199.965,181.742 207.869 C 182.100 208.432,182.492 208.982,182.613 209.091 C 185.410 211.607,188.824 222.133,187.959 225.576 L 187.687 226.660 186.925 225.682 C 186.505 225.144,185.771 223.938,185.293 223.002 C 182.585 217.703,174.006 211.959,166.403 210.357 C 155.679 208.096,152.726 207.846,150.625 209.022 C 149.846 209.458,148.498 209.938,147.628 210.089 C 144.513 210.630,139.319 212.544,137.945 213.656 C 136.151 215.108,135.876 214.945,129.966 208.915 C 126.256 205.129,124.045 203.162,123.499 203.162 C 122.053 203.162,116.212 206.515,113.620 208.833 C 112.246 210.062,111.021 211.067,110.897 211.067 C 109.527 211.067,113.265 204.984,117.078 201.008 C 119.710 198.262,119.986 199.040,114.355 193.319 C 109.767 188.657,109.696 188.632,105.663 190.286 C 98.097 193.388,90.891 198.833,84.435 206.324 L 82.561 208.498 82.812 206.719 C 84.636 193.787,90.502 182.701,101.064 172.226 C 110.732 162.638,116.933 160.119,126.617 161.845 M189.016 162.152 C 188.180 163.159,188.527 188.289,189.379 188.453 C 190.396 188.649,192.690 185.136,193.833 181.632 C 195.452 176.670,195.239 172.930,192.968 166.485 C 192.105 164.035,189.670 161.365,189.016 162.152 M228.840 169.351 C 229.205 169.790,229.333 177.935,229.382 203.677 C 229.451 239.966,229.379 238.735,231.443 238.735 C 234.108 238.735,233.992 240.354,233.992 203.123 C 233.992 170.377,234.010 169.583,234.757 169.184 C 235.862 168.592,246.356 168.648,246.957 169.249 C 247.318 169.611,247.431 177.942,247.431 204.335 L 247.431 238.947 248.419 240.401 C 249.605 242.146,249.676 243.554,248.640 244.760 C 248.218 245.251,247.411 246.186,246.846 246.838 C 246.282 247.490,245.260 248.744,244.576 249.624 C 242.859 251.835,241.554 252.780,240.993 252.218 C 240.751 251.977,240.225 251.779,239.823 251.779 C 239.421 251.779,238.203 250.889,237.117 249.802 C 234.752 247.438,235.295 247.461,233.001 249.628 C 231.952 250.619,230.586 251.531,229.965 251.655 C 229.345 251.779,228.742 252.036,228.625 252.225 C 228.508 252.414,227.366 252.569,226.087 252.569 C 224.808 252.569,223.666 252.414,223.549 252.225 C 223.432 252.036,222.830 251.779,222.210 251.656 C 220.913 251.396,218.258 248.840,217.926 247.530 C 217.802 247.041,217.575 246.640,217.421 246.640 C 215.830 246.640,214.717 170.816,216.285 169.249 C 217.031 168.503,228.211 168.594,228.840 169.351 M300.551 169.400 C 300.683 169.744,300.796 185.085,300.804 203.491 C 300.818 240.111,300.733 238.762,303.028 238.723 C 305.487 238.680,305.325 241.025,305.438 203.639 C 305.532 172.416,305.592 169.724,306.205 169.269 C 307.116 168.592,317.824 168.575,318.498 169.249 C 318.859 169.610,318.976 177.914,318.988 204.130 L 319.004 238.538 320.145 240.657 C 321.355 242.904,321.329 243.533,319.960 245.134 C 319.526 245.643,318.370 247.035,317.391 248.227 C 313.797 252.608,313.567 252.750,311.599 251.799 C 310.734 251.381,309.275 250.289,308.358 249.372 L 306.691 247.705 305.456 248.853 C 304.777 249.484,303.889 250.317,303.482 250.704 C 303.075 251.091,302.210 251.514,301.560 251.644 C 300.911 251.774,300.283 252.036,300.166 252.225 C 300.049 252.414,298.907 252.569,297.628 252.569 C 296.350 252.569,295.208 252.414,295.091 252.225 C 294.974 252.036,294.372 251.780,293.754 251.656 C 291.636 251.232,288.698 247.120,287.912 243.478 C 287.210 240.227,287.293 170.285,288.000 169.504 C 288.928 168.479,300.161 168.386,300.551 169.400 M119.368 177.012 C 119.368 177.842,138.083 196.838,138.901 196.838 C 139.595 196.838,139.960 194.293,139.553 192.292 C 138.021 184.759,128.454 176.285,121.483 176.285 C 119.692 176.285,119.368 176.396,119.368 177.012 M163.636 213.993 C 172.421 215.434,180.734 221.250,183.245 227.711 C 183.616 228.666,184.050 229.625,184.210 229.842 C 185.557 231.677,186.862 248.528,185.786 250.198 C 185.451 250.719,179.098 250.803,133.232 250.894 L 81.060 250.997 80.594 250.125 C 79.061 247.261,80.723 233.598,83.220 228.543 C 90.096 214.621,116.838 210.428,128.840 221.390 C 131.962 224.241,131.877 224.239,134.684 221.483 C 138.699 217.539,143.726 214.867,148.370 214.208 C 149.893 213.992,151.223 213.731,151.327 213.627 C 151.739 213.215,160.478 213.475,163.636 213.993 M150.198 229.203 C 145.604 230.685,140.485 234.643,141.350 236.043 C 141.869 236.882,169.960 236.406,169.960 235.557 C 169.960 230.578,157.927 226.708,150.198 229.203 M104.934 230.220 C 100.366 231.050,96.443 233.442,96.443 235.396 L 96.443 236.374 110.145 236.270 C 124.958 236.158,124.720 236.199,123.230 233.989 C 120.858 230.469,112.751 228.799,104.934 230.220 M199.012 263.201 C 200.270 263.936,200.765 265.406,200.005 266.152 C 199.663 266.488,199.366 266.377,198.822 265.711 C 197.186 263.711,194.071 264.963,194.071 267.622 C 194.071 271.145,196.205 271.207,199.728 267.787 C 202.982 264.627,206.309 264.309,206.328 267.156 C 206.331 267.566,206.686 267.339,207.342 266.506 C 208.631 264.870,214.076 264.591,215.678 266.078 L 216.533 266.873 216.986 266.026 C 217.660 264.768,221.746 264.981,222.327 266.304 C 222.542 266.793,222.853 267.194,223.019 267.194 C 223.184 267.194,223.320 267.460,223.320 267.787 C 223.320 268.113,223.510 268.379,223.742 268.379 C 223.978 268.379,224.058 268.045,223.923 267.620 C 223.584 266.554,225.125 265.217,226.693 265.217 C 228.089 265.217,229.087 266.105,229.357 267.589 L 229.537 268.577 229.590 267.566 C 229.688 265.733,230.507 265.070,232.368 265.320 C 233.788 265.510,234.158 265.399,234.946 264.549 C 235.832 263.594,235.888 263.584,236.412 264.294 C 236.711 264.700,237.454 265.251,238.061 265.520 C 239.250 266.044,239.241 265.899,238.378 270.356 C 238.082 271.884,236.576 272.554,236.117 271.360 C 235.901 270.795,235.820 270.803,235.355 271.431 C 234.506 272.581,233.823 271.487,233.946 269.173 C 234.055 267.110,233.799 266.846,232.409 267.590 C 231.936 267.843,231.573 268.623,231.404 269.751 C 231.118 271.655,230.104 272.415,229.032 271.526 C 228.713 271.261,228.458 271.223,228.458 271.439 C 228.458 271.654,227.628 271.943,226.613 272.082 C 224.605 272.357,222.925 271.647,222.925 270.522 C 222.925 270.117,222.609 270.284,221.971 271.025 C 221.160 271.968,220.745 272.124,219.204 272.066 C 217.587 272.005,217.391 272.090,217.385 272.856 C 217.377 274.006,216.793 274.869,216.250 274.533 C 216.008 274.384,215.810 273.652,215.810 272.906 C 215.810 271.736,215.689 271.564,214.921 271.645 C 214.114 271.730,214.028 271.564,213.996 269.859 C 213.937 266.810,212.253 266.967,212.253 270.021 C 212.253 271.695,211.478 272.375,210.498 271.561 C 210.066 271.202,210.031 270.835,210.346 269.931 C 210.782 268.681,210.565 267.589,209.881 267.589 C 209.650 267.589,209.399 267.811,209.323 268.083 C 208.148 272.271,206.760 273.624,206.688 270.652 C 206.671 269.946,206.559 269.634,206.439 269.960 C 205.542 272.400,202.861 272.884,200.320 271.065 C 199.782 270.681,199.511 270.711,198.936 271.218 C 197.115 272.826,193.965 272.405,192.589 270.369 C 189.855 266.324,194.838 260.763,199.012 263.201 M242.338 263.325 L 242.806 264.200 243.129 263.325 C 243.686 261.821,244.664 262.528,244.664 264.434 C 244.664 264.967,245.005 265.201,245.913 265.291 C 246.914 265.390,247.323 265.727,247.974 266.986 L 248.786 268.557 249.057 267.231 C 249.525 264.943,252.066 264.408,253.783 266.236 L 254.740 267.254 254.955 266.334 C 255.405 264.412,260.474 265.114,260.474 267.099 C 260.474 267.446,260.944 267.170,261.660 266.403 C 262.685 265.306,263.059 265.155,264.427 265.285 C 265.901 265.426,266.008 265.367,266.008 264.418 C 266.008 263.098,266.750 262.313,267.448 262.893 C 267.803 263.188,267.883 263.871,267.709 265.137 L 267.460 266.957 268.566 266.087 C 270.870 264.275,273.487 265.262,273.800 268.061 C 274.151 271.201,271.438 273.070,268.532 271.691 C 267.505 271.204,267.059 271.161,266.640 271.509 C 265.556 272.408,262.023 272.237,261.370 271.254 L 260.785 270.373 260.098 271.221 C 258.933 272.660,258.005 271.912,258.166 269.663 C 258.347 267.133,256.891 266.815,256.487 269.296 C 256.187 271.142,255.171 272.325,254.479 271.633 C 254.159 271.313,253.858 271.292,253.530 271.565 C 252.511 272.410,249.000 272.205,248.230 271.255 C 247.519 270.377,247.518 270.377,247.303 271.198 C 246.891 272.772,246.049 271.750,246.001 269.617 C 245.928 266.434,244.253 266.938,243.683 270.314 C 243.220 273.052,241.918 272.597,241.824 269.664 L 241.751 267.391 241.607 269.424 C 241.479 271.235,241.354 271.478,240.463 271.648 C 239.243 271.881,238.843 271.103,239.474 269.719 C 239.720 269.179,239.921 267.848,239.921 266.760 C 239.921 263.508,241.349 261.478,242.338 263.325 M279.602 263.076 C 279.734 263.420,279.842 264.042,279.842 264.459 C 279.842 265.005,280.120 265.217,280.834 265.217 C 281.380 265.217,282.131 265.573,282.503 266.008 C 283.312 266.953,284.190 267.041,284.190 266.177 C 284.190 264.503,285.582 265.891,285.807 267.790 C 286.058 269.902,286.293 269.823,286.174 267.668 C 286.053 265.471,287.978 264.467,290.117 265.612 C 290.716 265.933,291.033 265.776,291.822 264.768 C 292.750 263.583,293.676 263.492,293.676 264.587 C 293.676 265.617,295.082 266.498,295.644 265.820 C 295.919 265.489,296.292 265.217,296.473 265.217 C 296.654 265.217,297.269 264.751,297.839 264.181 C 298.605 263.414,298.991 263.260,299.319 263.588 C 299.643 263.911,299.645 264.150,299.327 264.468 C 299.009 264.786,299.121 265.167,299.742 265.876 C 300.210 266.410,300.703 267.415,300.837 268.108 C 301.071 269.310,301.084 269.293,301.134 267.736 C 301.201 265.612,301.814 265.159,304.406 265.317 L 306.522 265.445 306.643 267.561 C 306.758 269.568,306.795 269.633,307.358 268.830 C 307.684 268.364,307.844 267.810,307.714 267.599 C 306.631 265.847,310.963 264.364,312.430 265.985 C 313.118 266.746,313.133 266.746,313.949 265.985 C 315.606 264.442,319.217 265.933,317.640 267.510 C 316.876 268.273,317.694 269.953,318.831 269.957 C 319.684 269.960,320.346 270.918,319.945 271.567 C 319.826 271.759,319.070 271.919,318.264 271.922 C 317.458 271.925,316.265 271.943,315.613 271.961 C 314.960 271.980,313.893 271.943,313.241 271.880 C 312.589 271.817,311.212 271.903,310.181 272.072 C 308.477 272.352,308.222 272.288,307.369 271.368 C 306.239 270.149,306.081 270.126,305.814 271.146 C 305.590 272.006,304.371 272.246,304.311 271.443 C 304.291 271.171,304.305 270.177,304.343 269.234 C 304.443 266.731,303.056 266.991,302.767 269.529 C 302.522 271.680,301.453 272.557,300.554 271.346 C 300.141 270.790,299.884 270.695,299.680 271.025 C 298.643 272.703,294.681 272.338,294.226 270.523 C 293.950 269.426,292.888 269.216,292.879 270.257 C 292.868 271.543,292.201 272.185,291.394 271.686 C 290.831 271.337,290.367 271.384,289.307 271.897 C 288.151 272.458,287.795 272.480,286.957 272.042 C 286.393 271.747,285.414 271.622,284.678 271.750 C 283.592 271.939,283.330 271.831,283.023 271.066 C 282.764 270.421,282.652 270.352,282.634 270.826 C 282.620 271.194,282.415 271.614,282.179 271.760 C 281.384 272.252,280.875 271.167,280.980 269.203 C 281.147 266.056,279.287 266.757,278.724 270.053 C 278.266 272.739,276.832 272.498,276.995 269.763 C 277.305 264.549,278.747 260.849,279.602 263.076 M239.087 264.282 C 238.556 264.922,238.337 264.940,237.549 264.413 C 237.036 264.070,237.058 263.939,237.715 263.438 C 238.682 262.700,239.819 263.399,239.087 264.282 M307.115 263.889 C 307.115 264.633,305.991 265.042,305.445 264.496 C 305.134 264.185,305.149 263.902,305.500 263.479 C 306.065 262.799,307.115 263.065,307.115 263.889 M286.453 263.899 C 286.654 264.508,285.013 265.013,284.501 264.501 C 284.281 264.281,284.226 263.897,284.380 263.648 C 284.726 263.088,286.247 263.272,286.453 263.899 M290.499 267.409 C 290.220 267.745,289.754 267.929,289.462 267.817 C 289.171 267.705,288.933 267.786,288.933 267.997 C 288.933 268.207,289.178 268.379,289.477 268.379 C 289.777 268.379,290.301 268.780,290.643 269.269 C 291.249 270.138,291.263 270.121,291.284 268.478 C 291.307 266.619,291.235 266.522,290.499 267.409 M202.905 267.496 C 201.965 268.097,202.106 270.356,203.083 270.356 C 204.596 270.356,205.450 267.945,204.118 267.434 C 203.367 267.145,203.462 267.140,202.905 267.496 M219.051 267.668 C 218.281 268.438,218.450 270.356,219.289 270.356 C 220.801 270.356,221.655 267.945,220.323 267.434 C 219.527 267.128,219.606 267.114,219.051 267.668 M263.070 267.955 C 262.185 268.933,262.413 270.123,263.515 270.281 C 264.537 270.427,265.382 269.125,265.015 267.969 C 264.703 266.985,263.953 266.980,263.070 267.955 M270.281 267.482 C 269.058 267.767,269.106 270.356,270.335 270.356 C 271.375 270.356,272.245 268.503,271.516 267.841 C 271.204 267.558,270.648 267.396,270.281 267.482 M296.932 267.457 C 296.042 267.815,295.545 269.158,296.068 269.788 C 296.765 270.628,297.528 270.481,298.259 269.366 C 299.149 268.007,298.365 266.880,296.932 267.457 M313.043 268.985 C 313.043 269.624,313.661 269.769,314.006 269.211 C 314.126 269.017,313.959 268.756,313.634 268.631 C 313.275 268.493,313.043 268.632,313.043 268.985 M309.091 269.960 C 309.091 270.178,309.358 270.356,309.684 270.356 C 310.010 270.356,310.277 270.178,310.277 269.960 C 310.277 269.743,310.010 269.565,309.684 269.565 C 309.358 269.565,309.091 269.743,309.091 269.960  M -25 0 L -5 0 L -5 20 L -25 20 Z M 405 0 L 425 0 L 425 20 L 405 20 Z" stroke="none" fill="#fbfbfb" fill-rule="evenodd" transform="translate(490,0)"></path><path id="path2" d="M115.714 162.438 C 102.774 166.100,85.286 188.741,83.551 204.078 L 83.282 206.453 84.747 205.337 C 85.552 204.722,86.423 203.933,86.683 203.583 C 87.207 202.875,92.298 198.145,94.698 196.135 C 95.549 195.423,96.527 194.578,96.871 194.258 C 97.215 193.938,97.659 193.676,97.856 193.676 C 98.054 193.676,100.173 192.701,102.566 191.510 C 104.959 190.319,107.643 189.234,108.530 189.099 L 110.143 188.853 114.755 193.504 C 120.244 199.038,120.094 197.956,116.020 202.658 C 113.597 205.455,112.669 206.822,112.660 207.609 C 112.646 208.904,113.408 209.031,114.428 207.904 C 115.535 206.681,122.117 203.161,123.276 203.172 C 124.060 203.180,125.570 204.416,129.548 208.304 C 135.679 214.297,135.935 214.410,139.439 212.682 C 142.227 211.307,144.422 210.502,147.743 209.637 C 148.919 209.331,150.259 208.816,150.720 208.493 C 151.788 207.745,155.053 207.734,158.010 208.468 C 159.257 208.777,161.892 209.310,163.867 209.653 C 170.165 210.746,176.115 213.112,178.656 215.533 C 179.417 216.258,180.328 217.017,180.680 217.220 C 181.032 217.423,182.425 218.967,183.775 220.652 C 187.278 225.023,188.263 224.745,187.216 219.684 C 184.459 206.350,170.115 194.092,157.252 194.076 L 153.042 194.071 152.762 191.601 C 150.619 172.715,131.785 157.889,115.714 162.438 M126.115 177.060 C 131.847 179.204,138.933 187.243,139.784 192.567 C 140.127 194.712,139.639 196.838,138.805 196.838 C 138.192 196.838,120.069 179.105,119.327 177.779 C 118.278 175.904,121.976 175.512,126.115 177.060  M -25 0 L -5 0 L -5 20 L -25 20 Z M 405 0 L 425 0 L 425 20 L 405 20 Z" stroke="none" fill="#6d8af7" fill-rule="evenodd" transform="translate(950,0)"></path><path id="path3" d="M173.891 146.104 C 173.637 146.775,173.534 155.575,173.605 170.632 L 173.715 194.114 176.482 196.534 C 180.232 199.813,184.029 203.727,185.248 205.569 C 186.277 207.124,187.787 207.982,188.059 207.167 C 188.579 205.607,192.325 208.352,193.874 211.428 C 197.679 218.984,196.649 229.018,191.594 233.635 L 190.393 234.732 190.316 241.180 C 190.242 247.371,190.639 250.198,191.581 250.197 C 192.834 250.197,198.522 247.450,200.791 245.751 C 213.319 236.367,214.989 212.155,203.899 200.707 C 200.623 197.326,200.574 196.870,203.162 193.912 C 204.249 192.670,205.138 191.469,205.138 191.244 C 205.138 191.018,205.469 190.361,205.873 189.784 C 210.102 183.743,210.063 163.182,205.813 158.151 C 205.516 157.798,204.812 156.703,204.250 155.718 C 200.435 149.025,191.273 145.059,179.627 145.059 L 174.289 145.059 173.891 146.104 M191.470 163.082 C 196.086 169.128,196.085 181.890,191.468 187.284 C 190.103 188.879,188.855 189.371,188.330 188.521 C 188.024 188.027,188.063 162.108,188.370 161.611 C 188.887 160.775,190.175 161.387,191.470 163.082  M -25 0 L -5 0 L -5 20 L -25 20 Z M 405 0 L 425 0 L 425 20 L 405 20 Z" stroke="none" fill="#f89525" fill-rule="evenodd" transform="translate(30,454)"></path><path id="path4" d="M173.913 145.051 C 173.399 145.375,173.304 148.503,173.202 168.464 C 173.062 195.644,172.963 194.405,175.420 196.267 C 178.544 198.635,183.099 203.300,185.178 206.262 C 187.335 209.336,187.788 209.590,188.466 208.103 C 188.713 207.559,189.098 207.115,189.320 207.115 C 190.080 207.115,192.992 210.472,193.740 212.210 C 194.150 213.165,194.583 213.849,194.702 213.731 C 195.105 213.328,193.203 210.085,191.576 208.399 C 190.005 206.772,188.380 206.203,188.059 207.167 C 187.787 207.982,186.277 207.124,185.248 205.569 C 184.029 203.727,180.232 199.813,176.482 196.534 L 173.715 194.114 173.605 170.632 C 173.534 155.575,173.637 146.775,173.891 146.104 L 174.289 145.059 179.627 145.059 C 191.273 145.059,200.435 149.025,204.250 155.718 C 204.812 156.703,205.516 157.798,205.813 158.151 C 206.520 158.987,208.687 165.368,208.727 166.730 C 208.744 167.311,208.856 167.540,208.975 167.239 C 209.308 166.400,208.350 162.634,207.086 159.819 C 202.432 149.444,193.823 144.654,179.860 144.670 C 176.915 144.673,174.239 144.845,173.913 145.051 M253.204 145.289 C 252.454 147.244,252.967 250.962,253.729 251.369 C 254.922 252.008,265.807 251.904,266.351 251.249 C 266.656 250.881,266.822 245.069,266.893 232.187 L 266.996 213.655 267.865 214.588 C 270.239 217.136,271.146 223.713,271.146 238.369 C 271.146 247.534,271.272 250.956,271.621 251.304 C 272.385 252.069,283.943 251.959,284.589 251.181 C 285.208 250.435,284.919 224.119,284.261 221.344 C 284.029 220.366,283.667 218.676,283.457 217.589 C 282.839 214.401,282.361 212.807,281.470 210.967 C 281.009 210.015,280.632 209.041,280.632 208.802 C 280.632 208.564,280.033 207.751,279.300 206.996 L 277.968 205.624 279.286 203.701 C 280.011 202.644,280.611 201.503,280.618 201.166 C 280.626 200.829,280.824 200.362,281.058 200.127 C 281.713 199.473,282.451 196.296,283.384 190.119 C 284.153 185.030,283.868 170.430,282.984 169.545 C 282.050 168.611,271.325 168.359,270.435 169.249 C 270.092 169.592,269.960 172.383,269.960 179.322 C 269.960 188.748,269.806 190.347,268.457 194.862 C 266.851 200.239,266.798 199.511,266.798 171.997 C 266.798 157.652,266.690 145.633,266.559 145.289 C 266.353 144.755,265.387 144.664,259.881 144.664 C 254.376 144.664,253.410 144.755,253.204 145.289 M265.985 145.808 C 266.244 146.291,266.386 155.804,266.386 172.709 C 266.386 199.925,266.400 200.218,267.592 198.703 C 269.739 195.973,270.145 193.437,270.356 181.423 L 270.553 170.158 276.482 170.158 L 282.411 170.158 282.411 181.621 C 282.411 189.990,282.267 193.616,281.879 195.059 C 280.845 198.895,280.049 201.005,279.062 202.527 C 276.999 205.706,277.019 205.626,278.031 206.714 C 282.464 211.479,284.361 222.066,284.121 240.711 L 283.992 250.791 278.513 250.901 C 275.133 250.969,272.844 250.853,272.538 250.600 C 272.167 250.292,271.988 246.798,271.823 236.656 C 271.569 220.945,270.799 216.253,268.019 213.473 C 266.419 211.873,266.403 212.040,266.398 230.929 C 266.391 253.613,267.199 250.988,260.221 250.988 L 254.526 250.988 254.140 249.974 C 253.593 248.534,253.616 146.848,254.164 145.824 C 254.783 144.666,265.367 144.652,265.985 145.808 M121.047 161.548 C 121.645 161.638,122.624 161.638,123.221 161.548 C 123.819 161.457,123.330 161.383,122.134 161.383 C 120.939 161.383,120.450 161.457,121.047 161.548 M188.370 161.611 C 188.063 162.108,188.024 188.027,188.330 188.521 C 189.639 190.640,194.002 184.834,194.695 180.050 C 194.790 179.392,194.405 180.187,193.840 181.816 C 192.663 185.206,190.354 188.641,189.379 188.453 C 188.802 188.342,188.724 186.983,188.631 175.443 C 188.512 160.729,188.578 160.394,191.017 163.243 C 192.334 164.782,192.767 165.720,194.212 170.158 C 194.753 171.821,194.830 171.915,194.697 170.751 C 194.157 166.019,189.660 159.524,188.370 161.611 M114.822 162.451 C 114.324 162.665,114.251 162.790,114.625 162.790 C 114.951 162.790,115.573 162.637,116.008 162.451 C 116.506 162.236,116.579 162.111,116.206 162.111 C 115.879 162.111,115.257 162.264,114.822 162.451 M103.683 169.664 C 101.549 171.675,98.826 174.387,97.632 175.692 C 96.439 176.996,98.128 175.492,101.387 172.350 C 104.646 169.208,107.481 166.496,107.688 166.323 C 107.894 166.150,107.951 166.008,107.813 166.008 C 107.676 166.008,105.817 167.653,103.683 169.664 M136.957 166.293 C 138.423 167.784,142.704 171.074,141.502 169.786 C 140.741 168.971,139.318 167.761,138.340 167.097 C 137.362 166.434,136.739 166.072,136.957 166.293 M209.010 175.296 C 208.792 182.780,207.906 186.869,205.871 189.784 C 205.468 190.361,205.138 191.018,205.138 191.244 C 205.138 191.469,204.249 192.670,203.162 193.912 C 200.589 196.852,200.631 197.363,203.706 200.498 C 205.091 201.912,206.867 204.201,207.652 205.585 C 208.437 206.970,209.081 207.867,209.085 207.579 C 209.096 206.651,205.711 201.838,203.616 199.802 C 201.167 197.423,201.121 196.889,203.163 194.569 C 207.471 189.675,209.911 182.048,209.835 173.715 C 209.774 167.032,209.220 168.094,209.010 175.296 M216.285 169.249 C 214.717 170.816,215.830 246.640,217.421 246.640 C 217.575 246.640,217.802 247.041,217.926 247.530 C 218.258 248.840,220.913 251.396,222.210 251.656 C 222.830 251.779,223.432 252.036,223.549 252.225 C 223.666 252.414,224.808 252.569,226.087 252.569 C 227.366 252.569,228.508 252.414,228.625 252.225 C 228.742 252.036,229.345 251.779,229.965 251.655 C 230.586 251.531,231.952 250.619,233.001 249.628 C 235.295 247.461,234.752 247.438,237.117 249.802 C 238.203 250.889,239.421 251.779,239.823 251.779 C 240.225 251.779,240.751 251.977,240.993 252.218 C 241.554 252.780,242.859 251.835,244.576 249.624 C 245.260 248.744,246.282 247.490,246.846 246.838 C 247.411 246.186,248.218 245.251,248.640 244.760 C 249.676 243.554,249.605 242.146,248.419 240.401 L 247.431 238.947 247.431 204.335 C 247.431 177.942,247.318 169.611,246.957 169.249 C 246.356 168.648,235.862 168.592,234.757 169.184 C 234.010 169.583,233.992 170.377,233.992 203.123 C 233.992 240.354,234.108 238.735,231.443 238.735 C 229.379 238.735,229.451 239.966,229.382 203.677 C 229.333 177.935,229.205 169.790,228.840 169.351 C 228.211 168.594,217.031 168.503,216.285 169.249 M288.000 169.504 C 287.293 170.285,287.210 240.227,287.912 243.478 C 288.698 247.120,291.636 251.232,293.754 251.656 C 294.372 251.780,294.974 252.036,295.091 252.225 C 295.208 252.414,296.350 252.569,297.628 252.569 C 298.907 252.569,300.049 252.414,300.166 252.225 C 300.283 252.036,300.911 251.774,301.560 251.644 C 302.210 251.514,303.075 251.091,303.482 250.704 C 303.889 250.317,304.777 249.484,305.456 248.853 L 306.691 247.705 308.358 249.372 C 312.355 253.368,313.268 253.253,317.391 248.227 C 318.370 247.035,319.526 245.643,319.960 245.134 C 321.329 243.533,321.355 242.904,320.145 240.657 L 319.004 238.538 318.988 204.130 C 318.976 177.914,318.859 169.610,318.498 169.249 C 317.824 168.575,307.116 168.592,306.205 169.269 C 305.592 169.724,305.532 172.416,305.438 203.639 C 305.325 241.025,305.487 238.680,303.028 238.723 C 300.733 238.762,300.818 240.111,300.804 203.491 C 300.796 185.085,300.683 169.744,300.551 169.400 C 300.161 168.386,288.928 168.479,288.000 169.504 M228.854 204.281 C 229.046 237.483,229.072 238.419,229.819 238.965 C 231.005 239.832,232.556 239.646,233.627 238.506 L 234.585 237.486 234.783 203.822 L 234.980 170.158 240.711 170.158 L 246.443 170.158 246.640 204.743 L 246.838 239.328 247.890 241.194 L 248.943 243.059 245.542 247.221 C 241.395 252.297,240.114 252.479,236.899 248.450 C 235.516 246.716,234.869 246.682,233.374 248.266 C 227.490 254.504,218.702 251.874,216.935 243.346 C 216.620 241.824,216.323 179.779,216.587 170.444 C 216.598 170.053,217.953 169.964,222.628 170.049 L 228.656 170.158 228.854 204.281 M300.395 203.828 L 300.395 237.696 301.255 238.611 C 302.396 239.826,303.967 239.784,305.168 238.506 L 306.126 237.486 306.324 203.822 L 306.522 170.158 312.303 170.049 C 318.027 169.941,318.087 169.949,318.321 170.840 C 318.451 171.334,318.564 186.997,318.571 205.646 L 318.585 239.553 319.597 241.157 C 320.829 243.109,320.949 242.815,317.000 247.530 C 312.941 252.376,311.934 252.450,308.265 248.171 L 306.847 246.517 304.440 248.730 C 298.775 253.938,292.719 252.581,289.146 245.304 C 288.373 243.729,287.573 172.410,288.307 170.498 C 288.468 170.078,289.811 169.960,294.454 169.960 L 300.395 169.960 300.395 203.828 M126.482 177.224 C 126.482 177.316,127.115 177.766,127.889 178.223 C 128.663 178.679,129.186 178.873,129.050 178.654 C 128.785 178.226,126.482 176.943,126.482 177.224 M148.617 178.386 C 148.617 178.810,150.175 181.818,150.395 181.818 C 150.627 181.818,149.797 179.882,149.129 178.865 C 148.847 178.436,148.617 178.221,148.617 178.386 M122.908 181.522 C 124.546 183.267,124.901 183.581,124.901 183.284 C 124.901 183.220,124.056 182.376,123.024 181.406 L 121.146 179.644 122.908 181.522 M126.680 185.375 C 127.529 186.245,128.313 186.957,128.421 186.957 C 128.530 186.957,127.924 186.245,127.075 185.375 C 126.226 184.506,125.442 183.794,125.334 183.794 C 125.225 183.794,125.831 184.506,126.680 185.375 M151.846 186.364 C 151.839 186.798,151.987 187.510,152.174 187.945 C 152.607 188.952,152.607 187.913,152.174 186.561 C 151.920 185.767,151.855 185.728,151.846 186.364 M105.632 189.917 C 104.926 190.224,104.348 190.564,104.348 190.672 C 104.348 190.862,107.143 189.801,107.477 189.484 C 107.822 189.157,106.865 189.382,105.632 189.917 M131.048 189.831 C 131.154 190.107,131.637 190.575,132.122 190.871 C 132.963 191.383,132.960 191.360,132.046 190.368 C 130.976 189.207,130.765 189.093,131.048 189.831 M98.000 193.605 C 97.661 193.753,97.127 194.096,96.814 194.368 C 96.501 194.640,95.800 195.237,95.257 195.695 L 94.269 196.529 95.420 195.841 C 96.054 195.463,97.165 194.804,97.891 194.376 C 99.580 193.379,99.650 192.886,98.000 193.605 M85.415 195.889 C 84.878 197.834,85.155 198.110,85.771 196.245 C 86.031 195.455,86.151 194.715,86.037 194.600 C 85.922 194.486,85.642 195.066,85.415 195.889 M173.123 199.284 C 173.123 199.361,174.501 200.652,176.186 202.153 C 177.871 203.654,178.538 204.125,177.668 203.198 C 176.175 201.608,173.123 198.979,173.123 199.284 M115.933 202.199 C 114.889 203.409,113.874 204.698,113.677 205.065 C 113.330 205.714,116.078 202.745,117.519 200.915 C 118.931 199.121,117.799 200.038,115.933 202.199 M84.881 205.190 C 83.403 206.398,83.399 206.399,83.374 205.473 L 83.349 204.545 82.961 205.518 C 81.889 208.204,82.725 208.525,84.714 206.191 C 85.764 204.960,86.564 203.959,86.493 203.966 C 86.422 203.973,85.697 204.524,84.881 205.190 M180.647 206.522 C 180.649 206.739,181.014 207.362,181.458 207.905 C 181.995 208.561,182.129 208.628,181.858 208.103 C 181.192 206.814,180.644 206.099,180.647 206.522 M111.561 208.109 C 109.893 210.672,110.512 211.905,112.451 209.881 C 113.075 209.229,113.387 208.696,113.144 208.696 C 112.900 208.696,112.644 208.256,112.576 207.719 C 112.453 206.764,112.431 206.773,111.561 208.109 M150.713 208.498 C 150.248 208.824,148.918 209.361,147.759 209.691 C 145.690 210.281,145.683 210.288,147.374 210.075 C 148.320 209.956,149.654 209.553,150.338 209.178 C 151.022 208.804,152.737 208.396,154.150 208.271 L 156.719 208.045 154.139 207.975 C 152.390 207.928,151.287 208.096,150.713 208.498 M209.326 208.893 C 213.246 219.740,210.570 236.525,203.894 242.969 C 200.195 246.540,193.967 250.196,191.581 250.197 C 190.639 250.198,190.242 247.371,190.316 241.180 L 190.393 234.732 191.594 233.635 C 192.886 232.455,195.033 229.289,194.741 228.996 C 194.643 228.898,194.092 229.620,193.517 230.601 C 192.943 231.582,191.854 232.856,191.098 233.433 L 189.723 234.481 189.723 241.523 C 189.723 249.556,189.945 250.593,191.666 250.593 C 192.311 250.593,192.934 250.438,193.051 250.249 C 193.168 250.059,193.757 249.805,194.359 249.684 C 198.293 248.891,205.611 242.797,207.827 238.468 C 211.773 230.762,212.753 214.586,209.606 209.091 C 209.284 208.527,209.163 208.442,209.326 208.893 M134.135 213.266 C 135.254 214.353,135.786 214.613,136.468 214.407 C 137.848 213.990,138.092 213.554,136.843 213.737 C 136.042 213.855,135.364 213.607,134.500 212.880 C 132.709 211.373,132.458 211.637,134.135 213.266 M184.613 212.451 C 184.613 212.668,184.867 213.291,185.178 213.834 C 185.489 214.377,185.743 214.644,185.743 214.427 C 185.743 214.209,185.489 213.587,185.178 213.043 C 184.867 212.500,184.613 212.233,184.613 212.451 M174.736 213.188 C 175.266 213.653,178.261 215.393,178.261 215.237 C 178.261 214.955,175.368 213.043,174.941 213.043 C 174.738 213.043,174.646 213.108,174.736 213.188 M151.327 213.627 C 151.223 213.731,149.893 213.992,148.370 214.208 C 143.726 214.867,138.699 217.539,134.684 221.483 C 131.877 224.239,131.962 224.241,128.840 221.390 C 116.838 210.428,90.096 214.621,83.220 228.543 C 80.723 233.598,79.061 247.261,80.594 250.125 L 81.060 250.997 133.232 250.894 C 179.098 250.803,185.451 250.719,185.786 250.198 C 186.862 248.528,185.557 231.677,184.210 229.842 C 184.050 229.625,183.616 228.666,183.245 227.711 C 180.734 221.250,172.421 215.434,163.636 213.993 C 160.478 213.475,151.739 213.215,151.327 213.627 M195.125 215.217 C 195.499 216.860,195.521 226.023,195.155 227.470 C 194.897 228.486,194.936 228.458,195.421 227.273 C 196.196 225.379,196.197 217.310,195.421 215.415 C 194.914 214.175,194.884 214.154,195.125 215.217 M181.402 218.355 C 182.151 219.129,182.823 219.763,182.896 219.763 C 183.260 219.763,181.215 217.396,180.671 217.189 C 180.324 217.056,180.652 217.581,181.402 218.355 M187.211 219.763 C 187.524 221.468,187.749 221.789,187.741 220.520 C 187.738 219.995,187.560 219.298,187.346 218.972 C 187.073 218.555,187.033 218.790,187.211 219.763 M187.810 222.641 C 187.718 223.672,186.648 223.916,185.756 223.109 C 184.801 222.245,185.576 223.949,186.925 225.682 L 187.687 226.660 187.944 225.638 C 188.085 225.075,188.127 224.013,188.037 223.276 C 187.947 222.539,187.845 222.254,187.810 222.641 M162.253 229.063 C 165.885 230.158,169.960 233.592,169.960 235.557 C 169.960 236.406,141.869 236.882,141.350 236.043 C 140.853 235.238,144.052 231.958,146.640 230.619 C 150.790 228.473,157.935 227.761,162.253 229.063 M115.970 230.215 C 120.451 231.153,124.571 233.994,123.988 235.744 C 123.893 236.030,119.425 236.200,110.145 236.270 L 96.443 236.374 96.443 235.396 C 96.443 231.486,107.731 228.491,115.970 230.215 M194.750 263.113 C 193.348 263.851,191.700 266.447,191.700 267.918 C 191.700 271.426,196.316 273.531,198.936 271.218 C 199.511 270.711,199.782 270.681,200.320 271.065 C 202.861 272.884,205.542 272.400,206.439 269.960 C 206.559 269.634,206.671 269.946,206.688 270.652 C 206.760 273.624,208.148 272.271,209.323 268.083 C 209.399 267.811,209.650 267.589,209.881 267.589 C 210.565 267.589,210.782 268.681,210.346 269.931 C 210.031 270.835,210.066 271.202,210.498 271.561 C 211.478 272.375,212.253 271.695,212.253 270.021 C 212.253 266.967,213.937 266.810,213.996 269.859 C 214.028 271.564,214.114 271.730,214.921 271.645 C 215.689 271.564,215.810 271.736,215.810 272.906 C 215.810 273.652,216.008 274.384,216.250 274.533 C 216.793 274.869,217.377 274.006,217.385 272.856 C 217.391 272.090,217.587 272.005,219.204 272.066 C 220.745 272.124,221.160 271.968,221.971 271.025 C 222.609 270.284,222.925 270.117,222.925 270.522 C 222.925 271.647,224.605 272.357,226.613 272.082 C 227.628 271.943,228.458 271.654,228.458 271.439 C 228.458 271.223,228.713 271.261,229.032 271.526 C 230.104 272.415,231.118 271.655,231.404 269.751 C 231.573 268.623,231.936 267.843,232.409 267.590 C 233.799 266.846,234.055 267.110,233.946 269.173 C 233.823 271.487,234.506 272.581,235.355 271.431 C 235.820 270.803,235.901 270.795,236.117 271.360 C 236.576 272.554,238.082 271.884,238.378 270.356 C 239.241 265.899,239.250 266.044,238.061 265.520 C 237.454 265.251,236.711 264.700,236.412 264.294 C 235.888 263.584,235.832 263.594,234.946 264.549 C 234.158 265.399,233.788 265.510,232.368 265.320 C 230.507 265.070,229.688 265.733,229.590 267.566 L 229.537 268.577 229.357 267.589 C 229.087 266.105,228.089 265.217,226.693 265.217 C 225.125 265.217,223.584 266.554,223.923 267.620 C 224.058 268.045,223.978 268.379,223.742 268.379 C 223.510 268.379,223.320 268.113,223.320 267.787 C 223.320 267.460,223.184 267.194,223.019 267.194 C 222.853 267.194,222.542 266.793,222.327 266.304 C 221.746 264.981,217.660 264.768,216.986 266.026 L 216.533 266.873 215.678 266.078 C 214.076 264.591,208.631 264.870,207.342 266.506 C 206.686 267.339,206.331 267.566,206.328 267.156 C 206.309 264.309,202.982 264.627,199.728 267.787 C 196.205 271.207,194.071 271.145,194.071 267.622 C 194.071 264.963,197.186 263.711,198.822 265.711 C 199.685 266.768,200.542 266.249,200.330 264.799 C 200.056 262.927,196.910 261.977,194.750 263.113 M240.524 263.617 C 240.192 264.258,239.921 265.673,239.921 266.760 C 239.921 267.848,239.720 269.179,239.474 269.719 C 238.843 271.103,239.243 271.881,240.463 271.648 C 241.354 271.478,241.479 271.235,241.607 269.424 L 241.751 267.391 241.824 269.664 C 241.918 272.597,243.220 273.052,243.683 270.314 C 244.253 266.938,245.928 266.434,246.001 269.617 C 246.049 271.750,246.891 272.772,247.303 271.198 C 247.518 270.377,247.519 270.377,248.230 271.255 C 249.000 272.205,252.511 272.410,253.530 271.565 C 253.858 271.292,254.159 271.313,254.479 271.633 C 255.171 272.325,256.187 271.142,256.487 269.296 C 256.891 266.815,258.347 267.133,258.166 269.663 C 258.005 271.912,258.933 272.660,260.098 271.221 L 260.785 270.373 261.370 271.254 C 262.023 272.237,265.556 272.408,266.640 271.509 C 267.059 271.161,267.505 271.204,268.532 271.691 C 271.438 273.070,274.151 271.201,273.800 268.061 C 273.487 265.262,270.870 264.275,268.566 266.087 L 267.460 266.957 267.709 265.137 C 267.883 263.871,267.803 263.188,267.448 262.893 C 266.750 262.313,266.008 263.098,266.008 264.418 C 266.008 265.367,265.901 265.426,264.427 265.285 C 263.059 265.155,262.685 265.306,261.660 266.403 C 260.944 267.170,260.474 267.446,260.474 267.099 C 260.474 265.114,255.405 264.412,254.955 266.334 L 254.740 267.254 253.783 266.236 C 252.066 264.408,249.525 264.943,249.057 267.231 L 248.786 268.557 247.974 266.986 C 247.323 265.727,246.914 265.390,245.913 265.291 C 245.005 265.201,244.664 264.967,244.664 264.434 C 244.664 262.528,243.686 261.821,243.129 263.325 L 242.806 264.200 242.338 263.325 C 241.708 262.149,241.244 262.224,240.524 263.617 M278.352 262.945 C 277.860 263.552,277.153 267.101,276.995 269.763 C 276.832 272.498,278.266 272.739,278.724 270.053 C 279.287 266.757,281.147 266.056,280.980 269.203 C 280.875 271.167,281.384 272.252,282.179 271.760 C 282.415 271.614,282.620 271.194,282.634 270.826 C 282.652 270.352,282.764 270.421,283.023 271.066 C 283.330 271.831,283.592 271.939,284.678 271.750 C 285.414 271.622,286.393 271.747,286.957 272.042 C 287.795 272.480,288.151 272.458,289.307 271.897 C 290.367 271.384,290.831 271.337,291.394 271.686 C 292.201 272.185,292.868 271.543,292.879 270.257 C 292.888 269.216,293.950 269.426,294.226 270.523 C 294.681 272.338,298.643 272.703,299.680 271.025 C 299.884 270.695,300.141 270.790,300.554 271.346 C 301.453 272.557,302.522 271.680,302.767 269.529 C 303.056 266.991,304.443 266.731,304.343 269.234 C 304.305 270.177,304.291 271.171,304.311 271.443 C 304.371 272.246,305.590 272.006,305.814 271.146 C 306.081 270.126,306.239 270.149,307.369 271.368 C 308.222 272.288,308.477 272.352,310.181 272.072 C 311.212 271.903,312.589 271.817,313.241 271.880 C 313.893 271.943,314.960 271.980,315.613 271.961 C 316.265 271.943,317.458 271.925,318.264 271.922 C 319.070 271.919,319.826 271.759,319.945 271.567 C 320.346 270.918,319.684 269.960,318.831 269.957 C 317.694 269.953,316.876 268.273,317.640 267.510 C 319.217 265.933,315.606 264.442,313.949 265.985 C 313.133 266.746,313.118 266.746,312.430 265.985 C 310.963 264.364,306.631 265.847,307.714 267.599 C 307.844 267.810,307.684 268.364,307.358 268.830 C 306.795 269.633,306.758 269.568,306.643 267.561 L 306.522 265.445 304.406 265.317 C 301.814 265.159,301.201 265.612,301.134 267.736 C 301.084 269.293,301.071 269.310,300.837 268.108 C 300.703 267.415,300.210 266.410,299.742 265.876 C 299.121 265.167,299.009 264.786,299.327 264.468 C 299.645 264.150,299.643 263.911,299.319 263.588 C 298.991 263.260,298.605 263.414,297.839 264.181 C 297.269 264.751,296.654 265.217,296.473 265.217 C 296.292 265.217,295.919 265.489,295.644 265.820 C 295.082 266.498,293.676 265.617,293.676 264.587 C 293.676 263.492,292.750 263.583,291.822 264.768 C 291.033 265.776,290.716 265.933,290.117 265.612 C 287.978 264.467,286.053 265.471,286.174 267.668 C 286.293 269.823,286.058 269.902,285.807 267.790 C 285.582 265.891,284.190 264.503,284.190 266.177 C 284.190 267.041,283.312 266.953,282.503 266.008 C 282.131 265.573,281.380 265.217,280.834 265.217 C 280.120 265.217,279.842 265.005,279.842 264.459 C 279.842 262.720,279.125 261.992,278.352 262.945 M237.715 263.438 C 237.058 263.939,237.036 264.070,237.549 264.413 C 238.337 264.940,238.556 264.922,239.087 264.282 C 239.819 263.399,238.682 262.700,237.715 263.438 M305.500 263.479 C 305.149 263.902,305.134 264.185,305.445 264.496 C 305.991 265.042,307.115 264.633,307.115 263.889 C 307.115 263.065,306.065 262.799,305.500 263.479 M284.380 263.648 C 284.226 263.897,284.281 264.281,284.501 264.501 C 285.013 265.013,286.654 264.508,286.453 263.899 C 286.247 263.272,284.726 263.088,284.380 263.648 M243.867 267.358 C 243.612 267.613,243.493 267.007,243.522 265.593 L 243.565 263.439 243.911 265.204 C 244.128 266.313,244.112 267.113,243.867 267.358 M278.940 266.299 C 278.849 266.900,278.772 266.502,278.769 265.415 C 278.766 264.328,278.841 263.836,278.934 264.323 C 279.028 264.809,279.031 265.698,278.940 266.299 M236.124 266.567 C 235.992 266.912,235.740 267.194,235.564 267.194 C 235.023 267.194,234.868 266.246,235.279 265.451 C 235.763 264.513,236.526 265.520,236.124 266.567 M293.209 266.103 C 293.140 266.590,292.772 267.047,292.391 267.120 C 291.598 267.271,291.466 266.400,292.174 265.692 C 292.910 264.956,293.348 265.130,293.209 266.103 M240.737 269.303 C 240.238 269.802,240.139 267.295,240.613 266.139 C 240.823 265.626,240.945 265.919,241.033 267.149 C 241.102 268.102,240.968 269.071,240.737 269.303 M218.174 267.604 C 217.961 268.002,217.787 268.873,217.787 269.539 C 217.787 270.206,217.606 270.751,217.385 270.751 C 216.977 270.751,216.925 269.079,217.271 267.076 C 217.425 266.185,217.569 266.059,218.011 266.426 C 218.405 266.753,218.451 267.086,218.174 267.604 M231.272 267.243 C 231.189 267.542,230.985 268.320,230.818 268.972 C 230.551 270.021,230.511 269.937,230.475 268.248 C 230.446 266.874,230.574 266.388,230.929 266.518 C 231.201 266.618,231.355 266.944,231.272 267.243 M256.241 267.589 C 256.127 268.024,255.877 268.379,255.685 268.379 C 255.284 268.379,255.210 267.057,255.589 266.677 C 256.047 266.219,256.451 266.785,256.241 267.589 M266.482 267.273 C 266.229 267.526,265.890 267.603,265.729 267.442 C 265.569 267.282,265.694 266.992,266.008 266.798 C 266.746 266.342,267.079 266.676,266.482 267.273 M237.828 269.269 C 237.734 269.758,237.657 269.358,237.657 268.379 C 237.657 267.401,237.734 267.001,237.828 267.490 C 237.923 267.979,237.923 268.780,237.828 269.269 M253.063 270.813 C 252.966 271.184,252.648 271.395,252.358 271.284 C 252.067 271.172,251.915 270.856,252.020 270.581 C 252.126 270.307,252.272 269.565,252.345 268.934 C 252.608 266.682,252.672 266.623,252.954 268.370 C 253.111 269.343,253.160 270.442,253.063 270.813 M291.284 268.478 C 291.263 270.121,291.249 270.138,290.643 269.269 C 290.301 268.780,289.777 268.379,289.477 268.379 C 289.178 268.379,288.933 268.207,288.933 267.997 C 288.933 267.786,289.171 267.705,289.462 267.817 C 289.754 267.929,290.220 267.745,290.499 267.409 C 291.235 266.522,291.307 266.619,291.284 268.478 M312.213 268.676 C 312.173 270.533,312.168 270.540,311.767 269.291 C 311.543 268.597,311.467 267.752,311.597 267.414 C 312.024 266.300,312.254 266.770,312.213 268.676 M204.118 267.434 C 205.450 267.945,204.596 270.356,203.083 270.356 C 202.106 270.356,201.965 268.097,202.905 267.496 C 203.462 267.140,203.367 267.145,204.118 267.434 M220.323 267.434 C 221.655 267.945,220.801 270.356,219.289 270.356 C 218.450 270.356,218.281 268.438,219.051 267.668 C 219.606 267.114,219.527 267.128,220.323 267.434 M265.015 267.969 C 265.382 269.125,264.537 270.427,263.515 270.281 C 262.413 270.123,262.185 268.933,263.070 267.955 C 263.953 266.980,264.703 266.985,265.015 267.969 M271.548 269.356 C 270.602 271.123,269.035 270.330,269.470 268.305 C 269.656 267.440,270.791 267.183,271.516 267.841 C 271.998 268.279,272.002 268.507,271.548 269.356 M273.000 269.071 C 272.900 269.452,272.819 269.140,272.819 268.379 C 272.819 267.619,272.900 267.307,273.000 267.688 C 273.099 268.068,273.099 268.691,273.000 269.071 M298.417 267.785 C 298.991 268.475,298.009 270.356,297.075 270.356 C 295.141 270.356,295.697 267.474,297.679 267.225 C 297.815 267.208,298.148 267.460,298.417 267.785 M228.063 269.499 C 228.063 271.002,227.793 271.665,227.303 271.363 C 226.922 271.127,227.300 267.984,227.710 267.984 C 227.904 267.984,228.063 268.666,228.063 269.499 M243.083 269.763 C 243.083 270.524,242.905 271.146,242.688 271.146 C 242.248 271.146,242.163 269.968,242.532 269.005 C 242.909 268.023,243.083 268.263,243.083 269.763 M278.261 269.763 C 278.261 270.524,278.083 271.146,277.866 271.146 C 277.426 271.146,277.340 269.968,277.710 269.005 C 278.087 268.023,278.261 268.263,278.261 269.763 M314.006 269.211 C 313.661 269.769,313.043 269.624,313.043 268.985 C 313.043 268.632,313.275 268.493,313.634 268.631 C 313.959 268.756,314.126 269.017,314.006 269.211 M207.905 269.960 C 207.905 270.613,207.727 271.146,207.510 271.146 C 207.070 271.146,206.964 269.452,207.378 269.038 C 207.825 268.592,207.905 268.732,207.905 269.960 M266.271 270.920 C 266.143 271.255,265.784 271.431,265.474 271.312 C 265.018 271.137,264.995 270.870,265.355 269.915 C 265.767 268.824,265.827 268.795,266.153 269.524 C 266.346 269.957,266.399 270.586,266.271 270.920 M310.277 269.960 C 310.277 270.178,310.010 270.356,309.684 270.356 C 309.358 270.356,309.091 270.178,309.091 269.960 C 309.091 269.743,309.358 269.565,309.684 269.565 C 310.010 269.565,310.277 269.743,310.277 269.960 M196.942 271.029 C 196.456 271.123,195.567 271.125,194.966 271.035 C 194.365 270.944,194.763 270.867,195.850 270.864 C 196.937 270.861,197.428 270.935,196.942 271.029 M204.051 271.030 C 203.562 271.124,202.762 271.124,202.273 271.030 C 201.784 270.936,202.184 270.859,203.162 270.859 C 204.140 270.859,204.541 270.936,204.051 271.030 M270.652 271.023 C 270.272 271.123,269.649 271.123,269.269 271.023 C 268.888 270.924,269.200 270.843,269.960 270.843 C 270.721 270.843,271.033 270.924,270.652 271.023 M297.930 271.023 C 297.552 271.121,296.840 271.125,296.348 271.031 C 295.857 270.936,296.166 270.855,297.036 270.851 C 297.905 270.846,298.307 270.924,297.930 271.023  M -25 0 L -5 0 L -5 20 L -25 20 Z M 405 0 L 425 0 L 425 20 L 405 20 Z" stroke="none" fill="#a4cdaa" fill-rule="evenodd" transform="translate(490,454)"></path></g></svg>